<svg version="1.2" xmlns="http://www.w3.org/2000/svg" viewBox="0 0 96 32" width="96" height="32">
	<title>logo-96-32-svg</title>
	<defs>
		<clipPath clipPathUnits="userSpaceOnUse" id="cp1">
			<path d="m0 0h96v32h-96z"/>
		</clipPath>
		<linearGradient id="g1" x1="1" y1="1" x2="27.6" y2="31.3" gradientUnits="userSpaceOnUse">
			<stop offset="0" stop-color="#1c8cd0"/>
			<stop offset="1" stop-color="#3ac2d8"/>
		</linearGradient>
		<linearGradient id="g2" x1="1" y1="1" x2="27.6" y2="31.3" gradientUnits="userSpaceOnUse">
			<stop offset="0" stop-color="#1c8cd0"/>
			<stop offset="1" stop-color="#3ac2d8"/>
		</linearGradient>
		<linearGradient id="g3" x1="61.4" y1="2" x2="61.4" y2="31" gradientUnits="userSpaceOnUse">
			<stop offset="0" stop-color="#1c8cd0"/>
			<stop offset="1" stop-color="#3ac2d8"/>
		</linearGradient>
		<linearGradient id="g4" x1="75.1" y1="22" x2="75.1" y2="33" gradientUnits="userSpaceOnUse">
			<stop offset="0" stop-color="#1c8cd0"/>
			<stop offset="1" stop-color="#3ac2d8"/>
		</linearGradient>
	</defs>
	<style>
		.s0 { fill: url(#g1) } 
		.s1 { fill: url(#g2) } 
		.s2 { fill: url(#g3) } 
		.s3 { fill: url(#g4) } 
	</style>
	<g id="Clip-Path" clip-path="url(#cp1)">
		<g id="Layer">
			<path id="Layer" class="s0" d="m14 1c-0.2 0.1-0.4 0.2-1.1 0.6-0.2 0.1-0.3 0.2-0.3 0.2 0 0-0.2 0.1-0.4 0.2-0.2 0.1-0.4 0.2-0.4 0.2 0 0-0.2 0.1-0.4 0.2 0 0.1-0.1 0.1-0.2 0.1-0.3 0.2-1 0.6-1.2 0.7-0.1 0.1-0.4 0.2-0.6 0.4-0.3 0.1-0.6 0.3-0.7 0.3-0.1 0.1-0.3 0.2-0.3 0.2 0 0-0.1 0.1-0.2 0.1-0.1 0.1-0.2 0.1-0.3 0.2-0.3 0.1-1.1 0.6-1.3 0.7-0.1 0.1-0.3 0.2-0.4 0.2-0.2 0.1-0.3 0.2-0.5 0.3-0.1 0-0.2 0.1-0.2 0.1q-0.1 0.1-0.2 0.1c0 0-0.4 0.3-1.7 1-0.4 0.2-0.8 0.4-0.9 0.5-0.8 0.4-1.1 0.6-1.2 0.7q-0.3 0.3-0.4 0.8c-0.1 0.1-0.1 0.3-0.1 2.7 0 1.8 0 2.6 0 2.7q0.1 0.1 0.1 0.2c0 0 0.1 0.1 0.1 0.2 0.1 0.3 0.4 0.5 0.7 0.7 0.3 0.1 1 0.6 1.4 0.8 0.1 0.1 0.3 0.2 0.4 0.2 0 0.1 0.3 0.2 0.5 0.4 0.3 0.1 0.5 0.2 0.6 0.3 0.1 0 0.9 0.5 1.5 0.8 0.3 0.2 0.5 0.3 0.5 0.3 0 0 0.2 0.1 0.4 0.3 0.2 0.1 0.5 0.2 0.6 0.3 0.2 0.1 0.3 0.2 0.4 0.2 0.2 0.1 0.8 0.5 0.9 0.5q0.1 0.1 0.1 0.1c0 0 0.1 0.1 0.2 0.1 0.2 0.1 0.3 0.2 0.4 0.3 0.3 0.1 1.1 0.6 1.4 0.8 0.1 0 0.2 0 0.2 0.1 0 0 0.1 0.1 0.3 0.1 0.1 0.1 0.3 0.2 0.4 0.2 0.1 0.1 0.3 0.2 0.4 0.3 0.5 0.2 0.6 0.3 0.6 0.3q0 0 0.4 0.2c0 0.1 0.2 0.1 0.2 0.2 0.4 0.2 0.6 0.2 1 0.2 0.3 0 0.5 0 1.1-0.4 0.3-0.2 0.5-0.3 0.9-0.5 0.1 0 0.4-0.2 0.6-0.3 0.3-0.2 0.6-0.4 0.6-0.4 0.2-0.1 0.3-0.3 0.2-0.5-0.1 0-0.2-0.1-0.6-0.4 0 0-0.2-0.1-0.4-0.2-0.2-0.1-0.5-0.3-0.7-0.4-0.2-0.1-0.5-0.3-0.8-0.4q-0.7-0.5-1-0.6c-0.1-0.1-0.3-0.2-0.4-0.2-0.1-0.1-0.3-0.2-0.6-0.4-0.2-0.1-0.4-0.2-0.4-0.2 0-0.1-0.2-0.2-0.4-0.3-0.3-0.1-0.5-0.3-0.7-0.3-0.1-0.1-0.3-0.2-0.4-0.3-0.2-0.1-0.5-0.2-0.7-0.4-0.1-0.1-0.4-0.2-0.4-0.2-0.3-0.2-0.7-0.4-1.1-0.6-0.2-0.2-0.5-0.4-0.7-0.5-0.3-0.1-0.5-0.2-0.6-0.3-0.1 0-0.2-0.1-0.4-0.2-0.1-0.1-0.2-0.2-0.3-0.2-0.1 0-0.3-0.2-0.5-0.3-1.5-0.8-1.6-0.9-1.8-1.1q-0.5-0.7-0.3-1.4 0.1-0.9 1-1.3c0.2-0.1 1.2-0.7 1.5-0.9 0.1 0 0.2-0.1 0.3-0.1 0.4-0.3 1.1-0.7 1.1-0.7 0.1 0 0.4-0.2 0.6-0.3 0 0 0.2-0.2 0.4-0.2 0.3-0.2 1.2-0.8 1.4-0.8 0.4-0.3 0.9-0.6 1.2-0.7 0-0.1 0.2-0.1 0.2-0.2 0.1 0 0.2-0.1 0.4-0.2 1-0.5 1-0.6 1.4-0.6q0.2 0 0.4 0.1c0.2 0 0.9 0.4 1.9 1 0.4 0.2 0.4 0.2 0.6 0.4 0.2 0 0.4 0.2 0.6 0.3 0.9 0.5 1.1 0.6 1.4 0.8 0.1 0.1 0.4 0.2 0.7 0.4 0.2 0.1 0.5 0.3 0.7 0.4 0.1 0 0.3 0.1 0.3 0.2 0.1 0 0.2 0.1 0.3 0.1 0.1 0.1 0.2 0.2 0.3 0.2 0.1 0.1 0.2 0.1 0.2 0.2 0.1 0 0.2 0 0.3 0.1 0 0 0.2 0.1 0.2 0.1 0.1 0.1 0.3 0.2 0.4 0.2 0 0.1 0.2 0.1 0.2 0.1 0.1 0.1 0.1 0.1 0.2 0.1 0 0.1 0.1 0.2 0.3 0.2 0.1 0.1 0.4 0.2 0.5 0.3 0.2 0.1 0.5 0.3 0.7 0.4 0.2 0.2 0.5 0.3 0.5 0.3 0 0 0.1 0.1 0.1 0.1 0.2 0.1 1.5 0.8 1.7 0.9 0.3 0.2 0.7 0.4 0.7 0.4q0.3 0 0.3-0.2c0.1-0.1 0.1-0.2 0.1-1.6 0-1.6 0-1.7-0.1-2-0.1-0.3-0.4-0.6-0.6-0.7-0.1 0-0.2-0.1-0.3-0.2-0.1 0-0.2-0.1-0.3-0.1-0.4-0.3-0.8-0.5-0.8-0.5q-0.1-0.1-0.2-0.1c0 0-0.1-0.1-0.2-0.1-0.2-0.1-0.3-0.2-0.4-0.2 0-0.1-0.2-0.1-0.3-0.2-0.1 0-0.2-0.1-0.2-0.1-0.1-0.1-0.3-0.2-0.5-0.3-0.2-0.1-0.4-0.3-0.5-0.3-0.1 0-0.2-0.1-0.2-0.1q-0.2-0.1-0.2-0.1c0 0-0.1 0-0.1-0.1-0.1 0-0.2-0.1-0.3-0.1 0 0-0.3-0.2-0.5-0.4-0.3-0.1-0.8-0.4-1-0.5-0.2-0.1-0.5-0.2-0.5-0.3 0 0-0.5-0.3-0.5-0.3q0 0-0.1 0c-0.1-0.1-0.2-0.1-0.3-0.2 0 0-0.3-0.1-0.5-0.3-0.2-0.1-0.4-0.2-0.5-0.2-0.7-0.5-0.9-0.6-1-0.6 0 0-0.1-0.1-0.2-0.1-0.1-0.1-1.7-1-2.1-1.2-0.5-0.3-0.7-0.4-0.9-0.5-0.2 0-0.5 0-0.7 0z"/>
			<path id="Layer" class="s1" d="m14.2 9.7c-0.3 0-0.4 0.1-0.8 0.2 0 0.1-0.2 0.2-0.2 0.2-0.1 0-0.4 0.2-0.6 0.3-0.3 0.2-0.6 0.4-0.6 0.4-0.1 0-0.2 0.1-0.3 0.1 0 0.1-0.2 0.2-0.4 0.3-0.4 0.2-0.4 0.3-0.4 0.4 0 0.2 0.1 0.2 0.3 0.4 0.2 0.1 0.5 0.3 0.8 0.4 0.2 0.1 0.5 0.3 0.6 0.4 0.1 0 0.2 0.1 0.3 0.1q0 0.1 0.1 0.1c0 0 0 0 0.1 0.1 0.2 0.1 0.3 0.1 0.5 0.2 0.1 0.1 0.1 0.1 0.2 0.2 0 0 0.1 0 0.6 0.3 0.2 0.1 0.5 0.3 0.7 0.4 0.1 0.1 0.3 0.2 0.3 0.2 0 0 0.1 0 0.2 0.1 0.1 0 0.2 0.1 0.2 0.1q0 0 0 0c0 0 0.1 0.1 0.2 0.2 0.1 0 0.3 0.1 0.5 0.2 0.2 0.1 0.3 0.2 0.3 0.2q0 0 0.1 0c0 0.1 0.1 0.1 0.2 0.2 0.1 0 0.2 0.1 0.4 0.2 0.1 0.1 0.3 0.2 0.4 0.2 0.2 0.1 0.3 0.2 0.3 0.2 0 0 0.1 0.1 0.3 0.2 0.1 0 0.3 0.1 0.3 0.2 0.1 0 0.3 0.1 0.5 0.2 0.2 0.1 0.5 0.3 0.7 0.4 0.2 0.1 0.3 0.2 0.3 0.2 0.1 0 0.2 0.1 0.3 0.2 0.1 0.1 0.3 0.2 0.4 0.2 0.1 0.1 0.3 0.2 0.5 0.3 0.1 0.1 0.3 0.2 0.4 0.2 0.1 0.1 0.2 0.2 0.4 0.2 0.1 0.1 0.3 0.2 0.3 0.2q0 0 0.1 0.1 0.2 0.1 0.2 0.1c0 0 0.1 0 0.2 0.1 0.1 0.1 0.2 0.1 0.2 0.1 0 0 0.3 0.2 0.3 0.3 0.3 0.2 0.4 0.5 0.5 0.7 0.1 0.2 0.1 0.3 0.1 0.5 0 0.3-0.1 0.6-0.2 0.9-0.1 0.2-0.5 0.5-0.6 0.6-0.1 0-0.5 0.3-1.4 0.7-0.2 0.2-0.5 0.3-0.7 0.5-0.2 0.1-0.5 0.2-0.7 0.3-0.1 0.1-0.3 0.2-0.3 0.2q0 0-0.1 0.1c0 0-0.1 0-0.1 0.1-0.1 0-0.2 0-0.3 0.1-0.3 0.2-0.6 0.4-0.6 0.4 0 0-0.1 0-0.2 0.1-0.1 0-0.2 0.1-0.3 0.1-0.1 0.1-0.1 0.1-0.1 0.1q-0.1 0.1-0.2 0.1c0 0-0.3 0.2-0.5 0.3-0.5 0.3-0.5 0.3-0.7 0.4-0.1 0-0.2 0.1-0.3 0.1q-0.3 0.2-1.4 0.8c-0.5 0.3-0.5 0.3-0.8 0.4-0.4 0-0.5-0.1-1.4-0.5 0-0.1-0.2-0.2-0.4-0.3-0.1-0.1-0.3-0.1-0.3-0.2q-0.1 0-0.2 0c-0.1-0.2-0.3-0.2-1-0.7-0.5-0.2-0.9-0.4-0.9-0.5q-0.1 0-0.1 0 0 0-0.1-0.1c-0.1 0-0.3-0.2-0.6-0.3-0.3-0.2-0.6-0.4-0.8-0.4-0.1-0.1-0.2-0.2-0.3-0.2-0.3-0.2-0.6-0.4-1.1-0.6-0.2-0.2-0.5-0.3-0.5-0.4-0.2-0.1-1.3-0.7-1.5-0.8q-0.1-0.1-0.2-0.1c0 0-0.1-0.1-0.2-0.1-0.1-0.1-0.3-0.2-0.3-0.2-0.3-0.2-0.8-0.5-1-0.6-0.1 0-0.2-0.1-0.2-0.1 0 0-0.1 0-0.2-0.1 0 0-0.3-0.2-0.6-0.3-0.5-0.3-0.5-0.3-0.8-0.5-0.1 0-0.2-0.1-0.2-0.1-0.1 0-0.2-0.1-0.2-0.1-0.1-0.1-0.2-0.1-0.2-0.1-0.1 0-0.3 0.1-0.3 0.2q-0.1 0-0.1 0.1c0 0 0 3 0 3.1 0 0 0.1 0.1 0.1 0.2 0 0.2 0.1 0.4 0.3 0.6 0.1 0.2 0.3 0.3 0.8 0.6 0.1 0 0.2 0 0.2 0.1 0 0 0.2 0.1 0.3 0.2 0.2 0.1 0.4 0.2 0.5 0.2 0.1 0.1 0.2 0.2 0.2 0.2q0.1 0 0.1 0c0.1 0.1 0.2 0.1 0.3 0.2 0.1 0 0.2 0.1 0.2 0.1 0.1 0 0.2 0.1 0.3 0.2 0.1 0 0.3 0.1 0.4 0.2q0.1 0 0.1 0.1 0 0 0.1 0c0.1 0.1 0.2 0.1 0.3 0.2 0.8 0.4 1 0.5 1 0.6 0.1 0 0.2 0.1 0.4 0.2 0.1 0 0.4 0.2 0.5 0.2 0.1 0.1 0.3 0.2 0.3 0.2 0.1 0.1 0.4 0.2 0.6 0.4 0.5 0.3 0.6 0.3 0.8 0.4 0.1 0.1 0.2 0.1 0.3 0.2 0.2 0.1 0.2 0.1 0.5 0.2 0 0.1 0.2 0.2 0.3 0.2 0.1 0.1 0.2 0.2 0.2 0.2 0 0 0.1 0 0.2 0.1 0.1 0 0.1 0 0.1 0 0 0 0.2 0.1 0.3 0.2 0.2 0.1 0.4 0.2 0.4 0.2 0.1 0.1 0.2 0.1 0.3 0.2 0.3 0.1 1 0.6 1.2 0.7 0.1 0 0.2 0.1 0.3 0.1 0 0 0.2 0.1 0.3 0.2 0.5 0.3 0.9 0.5 1 0.5 0.2 0.1 0.5 0.1 0.7 0.1q0.3-0.1 0.6-0.2 0.1-0.1 0.1-0.1c0 0 0.1-0.1 0.2-0.1 0.3-0.2 0.4-0.2 0.6-0.4 0.2 0 0.4-0.2 0.6-0.3 0.3-0.1 0.4-0.2 0.4-0.2 0 0 0.1-0.1 0.3-0.1 0.3-0.2 0.9-0.6 1.1-0.7 0.2-0.1 0.2-0.1 0.8-0.4 0.1-0.1 0.4-0.2 0.5-0.3 0.2-0.1 0.4-0.2 0.5-0.3 0 0 0.2-0.1 0.3-0.1 0.1-0.1 0.2-0.1 0.2-0.2 0.1 0 0.3-0.1 0.9-0.4 0.2-0.2 0.5-0.4 0.7-0.5 0.2-0.1 0.5-0.2 0.5-0.3 0.1 0 0.2-0.1 0.3-0.1q0.1 0 0.1 0c0 0 0.1-0.1 0.2-0.2 0.2-0.1 0.4-0.2 0.5-0.2 0.1-0.1 0.2-0.2 0.3-0.2 0.2-0.1 0.9-0.5 1.5-0.8 0.1-0.1 0.2-0.2 0.3-0.2 0.1-0.1 0.3-0.2 0.6-0.3 0.5-0.3 0.7-0.5 0.8-0.8 0.2-0.4 0.2-0.3 0.2-3.1 0-2.1 0-2.5 0-2.7-0.2-0.6-0.4-0.8-1.2-1.3-0.2-0.1-0.6-0.3-0.8-0.5-0.3-0.1-0.5-0.2-0.5-0.2-0.1-0.1-0.2-0.1-0.3-0.2-0.1-0.1-0.4-0.3-0.7-0.4-0.3-0.2-0.7-0.4-0.9-0.5-0.2-0.1-0.5-0.3-0.7-0.4-0.4-0.3-0.5-0.3-0.7-0.4-0.2-0.1-0.5-0.3-0.6-0.4 0 0-0.2-0.1-0.3-0.1-0.1-0.1-0.3-0.2-0.4-0.3 0 0-0.2-0.1-0.4-0.2-0.2-0.2-0.5-0.3-0.6-0.3 0-0.1-0.1-0.1-0.2-0.2 0 0-0.2-0.1-0.5-0.3-0.2-0.1-0.5-0.2-0.5-0.2 0-0.1-0.7-0.5-0.8-0.5-0.1-0.1-0.2-0.1-0.2-0.1 0-0.1-0.3-0.2-1-0.6-0.1 0-0.8-0.4-1.1-0.6-0.1-0.1-0.3-0.2-0.4-0.2-0.3-0.2-0.6-0.3-1-0.2z"/>
			<path id="Layer" fill-rule="evenodd" class="s2" d="m37 23.1q-1.5 0-2.6-0.4-1.2-0.5-1.9-1.4-0.7-1-0.7-2.3h3.4q0.1 0.8 0.6 1.1 0.4 0.4 1.1 0.4 0.7 0 1.1-0.3 0.5-0.3 0.5-0.9 0-0.5-0.4-0.8-0.3-0.4-0.8-0.6-0.5-0.2-1.4-0.4-1.3-0.4-2.1-0.8-0.8-0.4-1.4-1.2-0.6-0.8-0.6-2.1 0-1.8 1.4-2.9 1.3-1 3.5-1 2.2 0 3.5 1 1.4 1.1 1.5 3h-3.5q-0.1-0.7-0.5-1-0.4-0.4-1.1-0.4-0.6 0-1 0.3-0.3 0.3-0.3 0.9 0 0.6 0.6 1 0.6 0.4 1.9 0.8 1.3 0.4 2.1 0.8 0.8 0.4 1.4 1.2 0.6 0.7 0.6 1.9 0 1.2-0.6 2.1-0.6 0.9-1.7 1.5-1.1 0.5-2.6 0.5zm16.8-5.6q0 0.5 0 1h-7.4q0.1 1 0.7 1.5 0.5 0.5 1.4 0.5 1.2 0 1.6-1h3.5q-0.3 1-1 1.9-0.7 0.8-1.7 1.3-1 0.5-2.3 0.5-1.6 0-2.8-0.7-1.2-0.7-1.9-1.9-0.7-1.2-0.7-2.9 0-1.7 0.7-2.9 0.7-1.2 1.9-1.9 1.2-0.7 2.8-0.7 1.5 0 2.7 0.7 1.2 0.6 1.9 1.8 0.6 1.2 0.6 2.8zm-3.3-0.8q0-0.9-0.5-1.4-0.6-0.5-1.5-0.5-0.8 0-1.4 0.5-0.5 0.5-0.6 1.4zm11.5-4.4q1.8 0 2.9 1.2 1.1 1.2 1.1 3.3v6.2h-3.2v-5.8q0-1-0.5-1.6-0.6-0.6-1.5-0.6-1 0-1.5 0.6-0.6 0.6-0.6 1.6v5.8h-3.2v-10.6h3.2v1.4q0.5-0.7 1.4-1.1 0.8-0.4 1.9-0.4zm7.9-1q-0.8 0-1.4-0.5-0.5-0.5-0.5-1.3 0-0.7 0.5-1.2 0.6-0.5 1.4-0.5 0.9 0 1.4 0.5 0.6 0.5 0.6 1.2 0 0.8-0.6 1.3-0.5 0.5-1.4 0.5zm1.6 1.1v10.6h-3.2v-10.6zm7.2 10.8q-1.6 0-2.8-0.7-1.3-0.7-2-1.9-0.7-1.2-0.7-2.9 0-1.6 0.7-2.9 0.8-1.2 2-1.9 1.3-0.7 2.8-0.7 1.6 0 2.8 0.7 1.3 0.7 2 1.9 0.7 1.3 0.7 2.9 0 1.6-0.7 2.9-0.7 1.2-2 1.9-1.3 0.7-2.8 0.7zm0-2.9q0.9 0 1.6-0.6 0.6-0.7 0.6-2 0-1.3-0.6-2-0.7-0.6-1.6-0.6-0.9 0-1.6 0.6-0.6 0.7-0.6 2 0 1.3 0.6 2 0.6 0.6 1.6 0.6zm10.5-6.1q0.6-0.9 1.4-1.4 0.9-0.5 1.9-0.5v3.4h-0.9q-1.2 0-1.8 0.6-0.6 0.5-0.6 1.8v4.9h-3.2v-10.6h3.2z"/>
			<path id="Layer" fill-rule="evenodd" class="s3" d="m58.3 27.5q0.4 0.1 0.6 0.4 0.3 0.3 0.3 0.8 0 0.4-0.2 0.7-0.2 0.3-0.5 0.4-0.4 0.2-0.9 0.2h-2.1v-4.9h2q0.5 0 0.9 0.2 0.3 0.1 0.5 0.4 0.2 0.3 0.2 0.7 0 0.4-0.2 0.7-0.3 0.3-0.6 0.4zm-1.8-0.4h0.9q0.3 0 0.5-0.1 0.2-0.2 0.2-0.5 0-0.3-0.2-0.4-0.2-0.2-0.5-0.2h-0.9zm1 2.1q0.3 0 0.5-0.2 0.2-0.2 0.2-0.5 0-0.3-0.2-0.5-0.2-0.1-0.6-0.1h-0.9v1.3zm3.3-4.4v5.2h-0.9v-5.2zm2.5 5.2q-0.6 0-1-0.2-0.5-0.3-0.7-0.7-0.3-0.5-0.3-1.1 0-0.6 0.3-1 0.3-0.5 0.7-0.7 0.5-0.3 1-0.3 0.6 0 1 0.3 0.5 0.2 0.8 0.7 0.2 0.4 0.2 1 0 0.6-0.2 1.1-0.3 0.4-0.8 0.7-0.4 0.2-1 0.2zm0-0.8q0.3 0 0.5-0.1 0.2-0.2 0.4-0.4 0.1-0.3 0.1-0.7 0-0.5-0.3-0.8-0.3-0.3-0.7-0.3-0.4 0-0.7 0.3-0.3 0.3-0.3 0.8 0 0.6 0.3 0.9 0.3 0.3 0.7 0.3zm2.4-1.2q0-0.6 0.2-1 0.2-0.5 0.7-0.7 0.4-0.3 1-0.3 0.7 0 1.2 0.4 0.4 0.4 0.6 1h-1.1q0-0.2-0.2-0.4-0.2-0.1-0.5-0.1-0.5 0-0.7 0.3-0.2 0.3-0.2 0.8 0 0.6 0.2 0.9 0.2 0.3 0.7 0.3 0.6 0 0.7-0.5h1.1q-0.2 0.6-0.6 1-0.5 0.3-1.2 0.3-0.6 0-1-0.2-0.5-0.3-0.7-0.7-0.2-0.5-0.2-1.1zm6.6 2l-1.3-1.7v1.7h-1v-5.2h1v2.9l1.3-1.6h1.2l-1.7 1.9 1.7 2zm1.4-2q0-0.6 0.3-1 0.2-0.5 0.7-0.7 0.4-0.3 1-0.3 0.7 0 1.2 0.4 0.4 0.4 0.6 1h-1.1q0-0.2-0.3-0.4-0.1-0.1-0.4-0.1-0.5 0-0.7 0.3-0.3 0.3-0.3 0.8 0 0.6 0.3 0.9 0.2 0.3 0.7 0.3 0.6 0 0.7-0.5h1.1q-0.2 0.6-0.6 1-0.5 0.3-1.2 0.3-0.6 0-1-0.2-0.5-0.3-0.7-0.7-0.3-0.5-0.3-1.1zm6.6-2q0.4 0 0.7 0.2 0.4 0.2 0.6 0.6 0.2 0.4 0.2 0.9v2.3h-1v-2.2q0-0.4-0.2-0.7-0.3-0.2-0.7-0.2-0.4 0-0.6 0.2-0.3 0.3-0.3 0.7v2.2h-0.9v-5.2h0.9v1.8q0.2-0.3 0.6-0.4 0.3-0.2 0.7-0.2zm2 2q0-0.6 0.2-1 0.3-0.5 0.7-0.7 0.4-0.3 0.9-0.3 0.4 0 0.7 0.2 0.4 0.2 0.6 0.5v-0.6h0.9v3.9h-0.9v-0.6q-0.2 0.3-0.6 0.5-0.3 0.1-0.7 0.1-0.5 0-0.9-0.2-0.4-0.3-0.7-0.7-0.2-0.5-0.2-1.1zm3.1 0q0-0.3-0.2-0.6-0.1-0.2-0.4-0.4-0.2-0.1-0.5-0.1-0.2 0-0.5 0.1-0.2 0.2-0.4 0.4-0.1 0.3-0.1 0.6 0 0.4 0.1 0.6 0.2 0.3 0.4 0.4 0.3 0.2 0.5 0.2 0.3 0 0.5-0.2 0.3-0.1 0.4-0.3 0.2-0.3 0.2-0.7zm2.3-2.4q-0.3 0-0.5-0.1-0.1-0.2-0.1-0.4 0-0.3 0.1-0.4 0.2-0.2 0.5-0.2 0.2 0 0.4 0.2 0.2 0.1 0.2 0.4 0 0.2-0.2 0.4-0.2 0.1-0.4 0.1zm0.4 0.5v3.9h-0.9v-3.9zm2.9-0.1q0.7 0 1.2 0.5 0.4 0.4 0.4 1.2v2.3h-1v-2.2q0-0.4-0.2-0.7-0.3-0.2-0.7-0.2-0.4 0-0.6 0.2-0.2 0.3-0.2 0.7v2.2h-1v-3.9h1v0.5q0.2-0.3 0.5-0.4 0.3-0.2 0.6-0.2z"/>
		</g>
	</g>
</svg>