<?xml version="1.0" encoding="utf-8"?>
<!-- Generator: Adobe Illustrator 27.3.1, SVG Export Plug-In . SVG Version: 6.00 Build 0)  -->
<svg version="1.1" id="Layer_1" xmlns="http://www.w3.org/2000/svg" xmlns:xlink="http://www.w3.org/1999/xlink" x="0px" y="0px"
	 viewBox="0 0 1099 512" style="enable-background:new 0 0 1099 512;" xml:space="preserve">
<style type="text/css">
	.st0{fill:none;stroke:#10182A;stroke-width:60;stroke-miterlimit:10;}
	.st1{fill:#E6E7E8;stroke:#109488;stroke-width:18;stroke-miterlimit:10;}
	.st2{fill:#10172A;}
</style>
<circle class="st0" cx="256" cy="256" r="195"/>
<g>
	<circle class="st1" cx="385.8" cy="109.2" r="52.2"/>
</g>
<g>
	<path class="st2" d="M413.3,481.9V307.3h52.8v32h1.9c3.6-10.6,9.8-19,18.4-25.1c8.6-6.1,18.9-9.2,30.9-9.2
		c12.1,0,22.5,3.1,31.1,9.3c8.6,6.2,14.1,14.5,16.5,25h1.8c3.3-10.4,9.6-18.7,19.1-24.9c9.5-6.2,20.6-9.4,33.5-9.4
		c16.5,0,29.9,5.3,40.2,15.9c10.3,10.6,15.5,25.1,15.5,43.5v117.5h-55.6V377.1c0-8.7-2.2-15.4-6.7-19.9c-4.5-4.6-10.3-6.9-17.4-6.9
		c-7.7,0-13.7,2.5-18,7.4c-4.4,5-6.5,11.6-6.5,19.9v104.2h-53.4V376.5c0-8.1-2.2-14.5-6.6-19.2c-4.4-4.7-10.2-7-17.4-7
		c-4.8,0-9.1,1.2-12.8,3.5c-3.7,2.3-6.6,5.6-8.7,9.8c-2.1,4.2-3.1,9.2-3.1,15v103.3H413.3z"/>
	<path class="st2" d="M758.8,484.8c-11.1,0-21-1.9-29.6-5.6c-8.6-3.8-15.4-9.4-20.3-17c-5-7.6-7.4-17.2-7.4-28.7
		c0-9.7,1.7-17.9,5.1-24.5c3.4-6.7,8.1-12.1,14.1-16.2c6-4.2,12.9-7.3,20.7-9.5c7.8-2.2,16.1-3.6,25-4.4c9.9-0.9,17.9-1.9,24-2.9
		c6.1-1,10.5-2.5,13.2-4.4c2.8-1.9,4.1-4.7,4.1-8.2v-0.6c0-5.8-2-10.3-6-13.5c-4-3.2-9.4-4.8-16.2-4.8c-7.3,0-13.3,1.6-17.7,4.8
		c-4.5,3.2-7.3,7.6-8.5,13.2l-51.2-1.8c1.5-10.6,5.4-20.1,11.8-28.5c6.3-8.4,15-15,26.1-19.8c11.1-4.8,24.5-7.2,40.1-7.2
		c11.1,0,21.4,1.3,30.8,3.9c9.4,2.6,17.6,6.4,24.5,11.4c7,5,12.4,11,16.2,18.2c3.8,7.2,5.7,15.4,5.7,24.7v118.6h-52.3v-24.3h-1.4
		c-3.1,5.9-7.1,10.9-11.9,15c-4.8,4.1-10.5,7.2-16.9,9.2C774.2,483.8,766.9,484.8,758.8,484.8z M776,448.5c6,0,11.4-1.2,16.2-3.6
		c4.8-2.4,8.7-5.8,11.5-10.1c2.9-4.3,4.3-9.3,4.3-14.9v-16.6c-1.6,0.8-3.5,1.6-5.7,2.3c-2.2,0.7-4.7,1.3-7.3,1.9
		c-2.7,0.6-5.4,1.1-8.2,1.6c-2.8,0.5-5.5,0.9-8.1,1.2c-5.2,0.8-9.7,2.1-13.4,3.9c-3.7,1.7-6.5,4-8.4,6.8c-1.9,2.8-2.9,6-2.9,9.8
		c0,5.8,2.1,10.2,6.2,13.2C764.4,447,769.6,448.5,776,448.5z"/>
	<path class="st2" d="M952.6,382.3v99.5H897V307.3h52.8v32h1.9c3.9-10.7,10.5-19.1,19.8-25.2c9.3-6.1,20.4-9.1,33.3-9.1
		c12.3,0,22.9,2.7,32,8.2c9.1,5.5,16.1,13.1,21.1,23c5,9.8,7.5,21.3,7.4,34.4v111.2h-55.6V381.5c0.1-9.7-2.4-17.3-7.3-22.7
		c-5-5.5-11.8-8.2-20.6-8.2c-5.8,0-11,1.3-15.4,3.8c-4.4,2.5-7.8,6.2-10.2,10.9C953.9,370,952.7,375.7,952.6,382.3z"/>
</g>
</svg>
