<svg width="27" height="30" viewBox="0 0 27 30" fill="none" xmlns="http://www.w3.org/2000/svg">
<path d="M13.0237 0.0339275C12.825 0.0816774 12.6187 0.184717 11.9233 0.584308C11.7424 0.68986 11.5871 0.775307 11.5794 0.775307C11.5743 0.775307 11.3986 0.870807 11.1923 0.988925C10.9859 1.10704 10.8076 1.20254 10.7974 1.20254C10.7796 1.20254 10.6191 1.29302 10.4103 1.42119C10.3568 1.45386 10.2778 1.50161 10.232 1.52674C9.87792 1.72277 9.17235 2.10979 9.01698 2.19524C8.91254 2.25304 8.62471 2.41388 8.38018 2.5521C8.13566 2.69033 7.83254 2.8562 7.70518 2.92405C7.58037 2.99191 7.44792 3.06479 7.41226 3.08741C7.3766 3.11002 7.26962 3.17285 7.17537 3.22312C7.08113 3.27338 6.96141 3.33872 6.90792 3.36888C6.60481 3.53977 5.83556 3.96701 5.61651 4.08513C5.47641 4.16052 5.28792 4.26607 5.19622 4.31885C4.99755 4.43445 4.87019 4.50231 4.69188 4.59781C4.62056 4.63802 4.51358 4.69834 4.45755 4.73352C4.40151 4.7687 4.35311 4.79635 4.34547 4.79635C4.33528 4.79635 3.86405 5.05772 2.62358 5.75135C2.19566 5.9901 1.79066 6.21377 1.71934 6.25146C0.916981 6.68373 0.644434 6.85211 0.471226 7.02049C0.259811 7.22908 0.127359 7.46532 0.058585 7.75433C0.0152831 7.93527 0.0127359 8.1313 0.0152831 10.5138C0.0152831 12.3383 0.0254718 13.1099 0.0458491 13.1903C0.0611321 13.2531 0.0815095 13.336 0.0916981 13.3788C0.101887 13.419 0.150283 13.5321 0.201226 13.6301C0.328585 13.8764 0.585849 14.1252 0.878773 14.2885C1.15132 14.4368 1.94858 14.8967 2.29755 15.1053C2.43509 15.1857 2.60066 15.2812 2.66689 15.3164C2.73566 15.3541 2.99292 15.5024 3.24255 15.6506C3.49217 15.7964 3.72651 15.9346 3.76472 15.9547C3.89462 16.0226 4.74028 16.5101 5.28028 16.8268C5.57066 16.9977 5.81264 17.1359 5.82028 17.1359C5.82537 17.1359 5.99858 17.2364 6.20745 17.3571C6.41377 17.4802 6.69141 17.6411 6.82132 17.7165C6.95122 17.7919 7.11934 17.8874 7.19066 17.9301C7.36132 18.0306 7.95735 18.3699 8.07452 18.4327C8.12292 18.4578 8.16877 18.488 8.17641 18.4955C8.18405 18.5031 8.29868 18.5684 8.43113 18.6413C8.56358 18.7167 8.74188 18.8172 8.82594 18.87C9.07811 19.0233 9.86009 19.4706 10.2269 19.6742C10.2829 19.7044 10.3568 19.7496 10.3924 19.7747C10.4281 19.7973 10.5478 19.8652 10.6599 19.9255C10.772 19.9833 10.9528 20.0813 11.0598 20.1416C11.1693 20.2045 11.3757 20.3151 11.5183 20.393C11.987 20.6443 12.0608 20.687 12.0863 20.7046C12.1143 20.7272 12.2417 20.7976 12.4557 20.9132C12.5321 20.9534 12.6594 21.0238 12.7358 21.0665C13.1077 21.2776 13.2988 21.3329 13.6579 21.3329C14.0273 21.3329 14.2183 21.265 14.7736 20.9383C15.0971 20.7498 15.3212 20.6191 15.7288 20.3905C15.7848 20.3578 16.0548 20.2045 16.3274 20.0512C16.5999 19.8954 16.8648 19.7446 16.9157 19.7169C17.1068 19.6089 17.1781 19.3952 17.0788 19.2294C17.038 19.1615 16.9412 19.0962 16.5057 18.8499C16.4573 18.8222 16.256 18.7066 16.0599 18.591C15.8638 18.4779 15.5607 18.302 15.3849 18.204C15.2091 18.106 14.8653 17.9075 14.6207 17.7642C14.147 17.4903 13.7776 17.2767 13.556 17.156C13.4822 17.1158 13.3395 17.0329 13.2376 16.9726C13.1357 16.9123 12.8657 16.7539 12.634 16.6207C12.4022 16.49 12.1958 16.3694 12.1755 16.3568C12.1551 16.3443 11.9666 16.2362 11.7552 16.1156C11.5463 15.9949 11.2712 15.8391 11.1439 15.7663C11.0191 15.6934 10.8 15.5702 10.6599 15.4898C10.5198 15.4119 10.2447 15.2536 10.0486 15.138C9.85245 15.0249 9.64358 14.9042 9.58754 14.8716C9.33537 14.7283 8.87434 14.4619 8.52028 14.2584C8.31141 14.1352 7.96754 13.9367 7.75613 13.8186C7.54726 13.6979 7.31547 13.5672 7.24415 13.5245C7.11934 13.4516 7.00471 13.3863 6.75764 13.2506C6.68887 13.2129 6.57934 13.1475 6.50802 13.1023C6.43924 13.0596 6.21509 12.9289 6.01132 12.8133C4.53905 11.9789 4.38622 11.8809 4.21047 11.6522C3.88188 11.23 3.76472 10.7626 3.85641 10.2625C3.9583 9.71207 4.28434 9.30243 4.86509 8.98828C5.07396 8.87519 6.11575 8.2846 6.36792 8.13381C6.47236 8.0735 6.6099 7.99308 6.67358 7.95789C7.07094 7.73422 7.78669 7.33212 7.81981 7.3095C7.86566 7.28185 8.21971 7.07829 8.38018 6.98782C8.44386 6.95515 8.62726 6.84959 8.78773 6.75661C9.09594 6.58069 10.0358 6.04287 10.1887 5.95742C10.6395 5.7036 11.1286 5.42464 11.3757 5.28139C11.4444 5.23866 11.554 5.17835 11.6176 5.14316C11.6788 5.10798 11.8443 5.01499 11.9844 4.93457C12.9727 4.37163 13.039 4.34398 13.4083 4.34398C13.5739 4.34398 13.6961 4.35906 13.8082 4.39424C13.9916 4.44953 14.6539 4.80891 15.7288 5.43469C16.0854 5.64077 16.0752 5.63574 16.3401 5.7815C16.4522 5.84433 16.6941 5.98004 16.875 6.08308C17.7512 6.5832 18.0416 6.74907 18.2887 6.8898C18.4364 6.97274 18.7446 7.14866 18.9764 7.28437C19.2082 7.41756 19.5113 7.59097 19.6514 7.67139C19.7915 7.7493 19.952 7.83977 20.0106 7.87245C20.0666 7.90512 20.1914 7.97548 20.2907 8.02575C20.3875 8.07852 20.5174 8.15643 20.5811 8.19916C20.7085 8.2846 20.7722 8.32481 20.8486 8.36251C20.8766 8.37759 20.9683 8.43036 21.0523 8.47811C21.1364 8.52586 21.2689 8.59875 21.3453 8.63644C21.4217 8.67665 21.5592 8.75205 21.6509 8.80482C21.7426 8.85509 21.8573 8.92043 21.9057 8.94807C21.954 8.97572 22.0228 9.01844 22.0585 9.04106C22.0941 9.06619 22.2419 9.15164 22.3896 9.23206C22.5373 9.31248 22.7768 9.44819 22.9245 9.53364C23.0723 9.61909 23.3805 9.79501 23.6123 9.92318C23.844 10.0513 24.0504 10.172 24.0707 10.1871C24.0911 10.2046 24.1726 10.2524 24.249 10.2926C24.435 10.3931 25.706 11.1144 25.8665 11.2099C26.2129 11.416 26.5848 11.607 26.6459 11.607C26.7809 11.607 26.8981 11.5366 26.949 11.4235C26.9974 11.323 27 11.2401 27 9.81008C27 8.18408 26.9923 8.08104 26.8624 7.76438C26.7606 7.51558 26.4855 7.20143 26.269 7.08332C26.2282 7.0607 26.1187 6.99787 26.0193 6.94258C25.9225 6.88478 25.7773 6.80436 25.7009 6.76415C25.2908 6.54299 24.9419 6.33942 24.8756 6.28413C24.8323 6.25146 24.7712 6.21377 24.7356 6.19869C24.6999 6.18612 24.5725 6.12078 24.4528 6.05544C24.3331 5.98758 24.1854 5.90465 24.1217 5.86946C24.058 5.83679 23.9332 5.76643 23.8415 5.71365C23.7498 5.66087 23.6301 5.59302 23.574 5.56286C23.518 5.53019 23.3015 5.40704 23.0901 5.28641C22.8812 5.16578 22.6571 5.03761 22.5959 5.00243C22.5323 4.96724 22.4253 4.90693 22.359 4.86923C22.2903 4.82902 22.2266 4.79635 22.219 4.79635C22.2113 4.79635 22.14 4.75363 22.061 4.70085C21.9821 4.65059 21.8853 4.59027 21.842 4.57017C21.8012 4.55006 21.5363 4.4043 21.2561 4.24597C20.9759 4.08764 20.5455 3.84638 20.3009 3.70815C20.0564 3.57244 19.845 3.45181 19.8297 3.43925C19.8017 3.41663 19.305 3.13767 19.2923 3.13767C19.2872 3.13767 19.2286 3.105 19.1598 3.06479C19.0936 3.02709 18.9866 2.96426 18.9229 2.92908C18.8618 2.89641 18.6402 2.76824 18.4288 2.6476C18.2199 2.52697 18.0008 2.40383 17.9448 2.37116C17.1577 1.92884 16.9845 1.83083 16.9208 1.78811C16.8826 1.76046 16.7935 1.7102 16.7222 1.67502C16.6101 1.61973 14.9824 0.699913 14.5825 0.468703C14.0909 0.17969 13.8948 0.0841906 13.6936 0.0339275C13.5204 -0.0113092 13.2096 -0.0113092 13.0237 0.0339275Z" fill="url(#paint0_linear_37_35)"/>
<path d="M13.1816 8.66911C12.9269 8.69425 12.7613 8.75456 12.4429 8.94556C12.3589 8.99582 12.2391 9.06368 12.1755 9.09886C12.1118 9.13405 11.8367 9.28986 11.5641 9.44568C11.2916 9.60149 11.0267 9.75228 10.9783 9.77992C10.9299 9.80506 10.8255 9.86537 10.7491 9.91061C10.6726 9.95585 10.4689 10.074 10.2957 10.1745C9.9365 10.3806 9.87283 10.4509 9.89066 10.6193C9.90849 10.7802 9.95688 10.8329 10.2447 10.9963C10.3899 11.0792 10.7083 11.2627 10.9528 11.4059C11.1974 11.5492 11.4903 11.7151 11.6024 11.7779C11.7144 11.8382 11.8367 11.9111 11.8749 11.9362C11.9106 11.9639 11.9488 11.984 11.959 11.984C11.9666 11.984 12.0405 12.0242 12.1194 12.0769C12.2774 12.175 12.3691 12.2277 12.583 12.3433C12.6594 12.3835 12.7486 12.4338 12.7791 12.4514C12.8428 12.4916 12.8607 12.5017 13.3981 12.8083C13.6146 12.9314 13.9177 13.1073 14.0706 13.2003C14.2234 13.2908 14.3507 13.3662 14.3558 13.3662C14.3609 13.3662 14.4526 13.4165 14.5596 13.4793C14.664 13.5421 14.7583 13.5924 14.7685 13.5924C14.7761 13.5924 14.8016 13.6075 14.822 13.6276C14.8449 13.6477 14.9366 13.703 15.0283 13.7507C15.12 13.7985 15.3289 13.9166 15.4944 14.0171C15.66 14.1151 15.8026 14.1955 15.8103 14.1955C15.8179 14.1955 15.8536 14.2156 15.8892 14.2433C15.9274 14.2684 16.009 14.3162 16.0726 14.3513C16.1949 14.4192 16.2739 14.4619 16.5184 14.6027C16.6024 14.6529 16.7858 14.756 16.9259 14.8364C17.066 14.9143 17.1934 14.9872 17.2061 14.9997C17.2214 15.0123 17.3462 15.0852 17.4863 15.1631C17.6264 15.2435 17.7767 15.3264 17.8174 15.3516C17.8607 15.3767 18.0722 15.4973 18.2887 15.6205C18.5052 15.7436 18.8287 15.9321 19.0095 16.0377C19.1878 16.1432 19.3381 16.2312 19.3457 16.2312C19.3508 16.2312 19.468 16.2965 19.6056 16.3769C19.7431 16.4574 19.924 16.5629 20.008 16.6082C20.0921 16.6559 20.2984 16.774 20.4665 16.872C20.6346 16.9701 20.8231 17.0806 20.8868 17.1158C20.9505 17.151 21.1313 17.254 21.2918 17.347C21.4497 17.4375 21.5847 17.5129 21.5898 17.5129C21.5949 17.5129 21.6611 17.5531 21.7375 17.6009C21.814 17.6486 21.8827 17.6888 21.8904 17.6888C21.898 17.6888 21.9846 17.7391 22.084 17.8019C22.1833 17.8647 22.2699 17.915 22.2775 17.915C22.3005 17.915 22.5781 18.1085 22.6469 18.1738C22.8557 18.3724 23.029 18.6513 23.1181 18.9404C23.1665 19.0962 23.1792 19.1892 23.1792 19.4128C23.1792 19.7471 23.1181 19.9934 22.9653 20.2648C22.8507 20.4684 22.5068 20.8227 22.3514 20.8981C22.2546 20.9433 21.8573 21.1695 21.0269 21.647C20.8307 21.7601 20.5047 21.9461 20.3009 22.0617C20.0972 22.1748 19.7991 22.3457 19.6361 22.4412C19.4731 22.5367 19.3305 22.6146 19.3203 22.6146C19.3101 22.6146 19.2719 22.6347 19.2362 22.6623C19.198 22.6875 19.1267 22.7327 19.0783 22.7604C19.0299 22.788 18.9204 22.8483 18.8363 22.8961C18.5256 23.0745 18.1791 23.268 18.174 23.268C18.169 23.268 18.0925 23.3132 18.0059 23.366C17.9168 23.4213 17.7869 23.4967 17.7156 23.5344C17.6468 23.5696 17.5704 23.6148 17.55 23.6324C17.5296 23.65 17.4659 23.6852 17.4099 23.7128C17.3539 23.7405 17.1068 23.8762 16.8623 24.0194C16.391 24.2909 16.3834 24.2934 16.2025 24.3914C16.1389 24.4266 16.0166 24.4969 15.9325 24.5472C15.7135 24.6779 15.2346 24.9493 14.5316 25.3464C14.0451 25.6203 14.0018 25.6354 13.691 25.6505C13.258 25.6706 13.151 25.6304 12.3283 25.1604C12.2799 25.1328 12.1016 25.0297 11.9335 24.9342C11.7654 24.8387 11.61 24.7508 11.5896 24.7432C11.5692 24.7332 11.5056 24.698 11.4495 24.6653C11.2508 24.5447 11.1362 24.4768 10.3542 24.0345C9.92122 23.7882 9.53405 23.5671 9.49584 23.5419C9.46018 23.5143 9.41943 23.4942 9.40924 23.4942C9.39905 23.4942 9.34811 23.4665 9.29971 23.4339C9.24877 23.4012 8.97877 23.2479 8.69858 23.0921C8.41839 22.9363 8.07962 22.7428 7.94717 22.6649C7.81471 22.5844 7.65424 22.4914 7.59056 22.4563C7.28235 22.2879 6.95122 22.0969 6.53858 21.8531C6.28896 21.7048 6.0266 21.554 5.95783 21.5189C5.78971 21.4359 4.66132 20.7976 4.48811 20.6895C4.41424 20.6418 4.34802 20.6041 4.33783 20.6041C4.33019 20.6041 4.21811 20.5438 4.09075 20.4684C3.96339 20.393 3.81821 20.31 3.76981 20.2824C3.45905 20.109 2.98019 19.8376 2.81717 19.7395C2.71019 19.6767 2.61849 19.6239 2.61085 19.6239C2.60321 19.6239 2.52424 19.5812 2.43764 19.5259C2.35104 19.4731 2.0683 19.3098 1.80849 19.164C1.32962 18.8976 1.29141 18.875 1.02651 18.7192C0.945 18.6715 0.832924 18.6086 0.776886 18.5785C0.720849 18.5508 0.624056 18.4955 0.560377 18.4603C0.496698 18.4227 0.412641 18.3925 0.374434 18.3925C0.267453 18.3925 0.104434 18.4855 0.0738679 18.5634C0.0585849 18.6011 0.0356604 18.6513 0.0229245 18.674C-0.00764151 18.7318 -0.00764151 21.6646 0.0229245 21.7827C0.0356604 21.833 0.061132 21.936 0.0789622 22.0114C0.11717 22.1823 0.249623 22.4412 0.374434 22.5895C0.547641 22.798 0.675 22.886 1.18443 23.1574C1.25321 23.1926 1.35 23.2479 1.40094 23.2806C1.44934 23.3107 1.60472 23.4012 1.74481 23.4791C1.8849 23.5595 2.09632 23.6802 2.21349 23.748C2.33066 23.8159 2.43255 23.8712 2.43764 23.8712C2.44273 23.8712 2.48858 23.8963 2.54207 23.929C2.59302 23.9616 2.71783 24.032 2.81462 24.0848C2.91396 24.135 3.01075 24.1928 3.03113 24.2104C3.05151 24.228 3.17377 24.2959 3.29858 24.3612C3.42594 24.4266 3.58896 24.5196 3.66283 24.5648C3.7367 24.6125 3.80038 24.6502 3.80802 24.6502C3.81311 24.6502 3.87424 24.6829 3.94302 24.7231C4.00924 24.7608 4.11622 24.8211 4.1799 24.8563C4.97717 25.3037 5.21405 25.4394 5.24717 25.467C5.26754 25.4846 5.41273 25.5675 5.56556 25.6505C5.72094 25.7334 5.96037 25.8666 6.10047 25.9445C6.24056 26.0249 6.39594 26.1104 6.44434 26.138C6.49273 26.1657 6.76019 26.319 7.03783 26.4773C7.53962 26.7613 7.62368 26.809 7.84273 26.9322C7.90641 26.9674 8.01594 27.0277 8.08471 27.0704C8.25537 27.1709 8.34452 27.2187 8.55085 27.3293C8.64509 27.3795 8.80811 27.4775 8.91254 27.5429C9.01698 27.6107 9.11122 27.666 9.12396 27.666C9.13669 27.666 9.21056 27.7062 9.28698 27.754C9.36339 27.8017 9.43217 27.8419 9.43726 27.8419C9.4449 27.8419 9.57226 27.9123 9.72509 27.9952C9.87537 28.0807 10.0562 28.1812 10.125 28.2189C10.1963 28.2566 10.339 28.337 10.4434 28.3999C10.6574 28.5255 11.4088 28.9553 11.6024 29.0608C11.6737 29.0985 11.7908 29.1639 11.8673 29.2041C11.9411 29.2443 12.1143 29.3423 12.2493 29.4227C12.6874 29.6816 13.0517 29.8751 13.2045 29.9304C13.3981 29.9957 13.7292 30.0208 13.9101 29.9806C14.0935 29.9404 14.2947 29.86 14.4756 29.7595C14.5596 29.7142 14.6284 29.6765 14.6335 29.6765C14.6386 29.6765 14.7328 29.6238 14.8424 29.5609C15.1251 29.3926 15.1939 29.3549 15.4358 29.2242C15.5556 29.1588 15.8281 29.008 16.0446 28.8899C16.2586 28.7693 16.4369 28.6713 16.442 28.6713C16.4471 28.6713 16.5413 28.6185 16.6508 28.5557C16.9769 28.3647 17.6009 28.0153 17.7971 27.9148C17.9703 27.8269 18.0467 27.7816 18.5816 27.4775C18.709 27.4047 18.9535 27.2664 19.1292 27.1709C19.305 27.0729 19.5062 26.9623 19.575 26.9246C19.6463 26.8869 19.7762 26.8141 19.8679 26.7663C19.9596 26.7161 20.064 26.6582 20.0997 26.6381C20.1889 26.5854 20.4207 26.4547 20.9505 26.1632C21.1899 26.03 21.544 25.8314 21.7401 25.7234C21.9362 25.6128 22.1604 25.4871 22.2368 25.4469C22.3132 25.4042 22.4202 25.3439 22.4711 25.3112C22.5246 25.2785 22.5705 25.2534 22.5781 25.2534C22.5832 25.2534 22.7004 25.1906 22.8379 25.1127C22.978 25.0322 23.1767 24.9242 23.2811 24.8689C23.3856 24.8136 23.5409 24.7256 23.6275 24.6754C23.7549 24.595 24.4808 24.1954 25.0896 23.8636C25.166 23.8234 25.3036 23.7455 25.3953 23.6952C25.487 23.6425 25.7493 23.4967 25.9811 23.366C26.4956 23.077 26.6612 22.9287 26.8191 22.6096C27.0051 22.2401 27 22.3105 27 19.4983C27 17.4375 26.9949 16.9675 26.9643 16.8218C26.8421 16.2236 26.6485 16.005 25.8385 15.5426C25.5736 15.3918 25.1788 15.1631 24.9623 15.0349C24.7457 14.9093 24.5267 14.7811 24.4783 14.7535C24.4299 14.7258 24.3025 14.6554 24.1981 14.5976C24.0937 14.5398 23.76 14.3463 23.4594 14.1704C23.1589 13.9945 22.764 13.7683 22.5857 13.6653C22.4074 13.5622 22.1094 13.3913 21.9235 13.2807C21.5083 13.037 21.4497 13.0043 21.2434 12.8887C21.0243 12.7655 20.655 12.557 20.604 12.5243C20.5786 12.5117 20.441 12.4313 20.2984 12.3509C20.1532 12.2679 19.9876 12.1699 19.9316 12.1347C19.8756 12.0971 19.6641 11.9739 19.4604 11.8583C19.2566 11.7427 19.0223 11.6095 18.9382 11.5617C18.8541 11.514 18.7624 11.4612 18.7344 11.4461C18.7064 11.4311 18.4772 11.2954 18.225 11.1471C17.9728 10.9963 17.7487 10.8656 17.7283 10.853C17.6621 10.8153 16.982 10.4333 16.875 10.3755C16.819 10.3454 16.7451 10.3001 16.7094 10.275C16.6559 10.2373 16.3783 10.084 15.7415 9.73972C15.5887 9.65427 14.9366 9.29489 14.5953 9.1064C14.4756 9.03855 14.3024 8.94305 14.2081 8.89027C13.8617 8.69927 13.5662 8.63644 13.1816 8.66911Z" fill="url(#paint1_linear_37_35)"/>
<defs>
<linearGradient id="paint0_linear_37_35" x1="0" y1="0" x2="26.6115" y2="30.3408" gradientUnits="userSpaceOnUse">
<stop stop-color="#1C8CD0"/>
<stop offset="1" stop-color="#3AC2D8"/>
</linearGradient>
<linearGradient id="paint1_linear_37_35" x1="0" y1="0" x2="26.6115" y2="30.3408" gradientUnits="userSpaceOnUse">
<stop stop-color="#1C8CD0"/>
<stop offset="1" stop-color="#3AC2D8"/>
</linearGradient>
</defs>
</svg>
