<?xml version="1.0" encoding="utf-8"?>
<!-- Generator: Adobe Illustrator 27.3.1, SVG Export Plug-In . SVG Version: 6.00 Build 0)  -->
<svg version="1.1" id="Layer_1" xmlns="http://www.w3.org/2000/svg" xmlns:xlink="http://www.w3.org/1999/xlink" x="0px" y="0px"
	 viewBox="0 0 512 512" style="enable-background:new 0 0 512 512;" xml:space="preserve">
<style type="text/css">
	.st0{fill:#118140;}
</style>
<path class="st0" d="M495,256c0,54.7-10.7,100.8-31.9,138.3c-21.3,37.5-50,65.9-86.2,85.2c-36.2,19.3-76.4,28.9-120.9,28.9
	c-44.8,0-85.2-9.7-121.3-29.2c-36.1-19.4-64.7-47.9-85.9-85.4C27.6,356.3,17,310.4,17,256c0-54.7,10.6-100.8,31.8-138.3
	C70,80.1,98.6,51.8,134.7,32.5C170.8,13.2,211.2,3.6,256,3.6c44.5,0,84.8,9.6,120.9,28.9c36.2,19.3,64.9,47.7,86.2,85.2
	C484.3,155.2,495,201.3,495,256z M357.7,256c0-29.4-3.9-54.3-11.6-74.5c-7.8-20.2-19.2-35.6-34.3-46.1
	c-15.1-10.5-33.7-15.7-55.8-15.7c-22.1,0-40.7,5.2-55.8,15.7c-15.1,10.5-26.5,25.9-34.3,46.1c-7.8,20.2-11.6,45.1-11.6,74.5
	s3.9,54.3,11.6,74.5c7.8,20.2,19.2,35.6,34.3,46.1c15.1,10.5,33.7,15.7,55.8,15.7c22.1,0,40.7-5.2,55.8-15.7
	c15.1-10.5,26.6-25.8,34.3-46.1C353.8,310.3,357.7,285.4,357.7,256z"/>
</svg>
