<?xml version="1.0" encoding="UTF-8"?>
<svg id="Layer_1" data-name="Layer 1" xmlns="http://www.w3.org/2000/svg" viewBox="0 0 383.92 387.45">
  <defs>
    <style>
      .cls-1 {
        stroke: #109488;
      }

      .cls-1, .cls-2 {
        fill: none;
        stroke-miterlimit: 10;
        stroke-width: 40px;
      }

      .cls-2 {
        stroke: #b8b8b8;
      }
    </style>
  </defs>
  <path class="cls-2" d="m363.92,195.49c0,94.98-76.99,171.96-171.96,171.96S20,290.46,20,195.49,96.99,23.53,191.96,23.53c27.2,0,52.91,6.31,75.77,17.55-4.64,7.2-7.34,15.76-7.34,24.96,0,25.42,20.61,46.03,46.03,46.03,11.23,0,21.5-4.01,29.49-10.69,17.71,27.04,28.01,59.38,28.01,94.11Z"/>
  <path class="cls-1" d="m352.46,66.03c0,14.2-6.43,26.9-16.54,35.34-7.99,6.68-18.26,10.69-29.49,10.69-25.42,0-46.03-20.61-46.03-46.03,0-9.2,2.7-17.76,7.34-24.96,8.2-12.68,22.47-21.08,38.7-21.08,25.42,0,46.03,20.61,46.03,46.03Z"/>
</svg>