<?xml version="1.0" encoding="utf-8"?>
<!-- Generator: Adobe Illustrator 27.3.1, SVG Export Plug-In . SVG Version: 6.00 Build 0)  -->
<svg version="1.1" id="Layer_1" xmlns="http://www.w3.org/2000/svg" xmlns:xlink="http://www.w3.org/1999/xlink" x="0px" y="0px"
	 viewBox="0 0 96 14.5" style="enable-background:new 0 0 96 14.5;" xml:space="preserve">
<style type="text/css">
	.st0{clip-path:url(#SVGID_00000000917254398501663950000000837762444436812162_);}
	.st1{fill:#118040;}
	.st2{fill:#353535;}
</style>
<g>
	<g>
		<defs>
			<rect id="SVGID_1_" y="-8.2" width="96" height="32"/>
		</defs>
		<clipPath id="SVGID_00000042708647182010394140000014232336261234826631_">
			<use xlink:href="#SVGID_1_"  style="overflow:visible;"/>
		</clipPath>
		<g style="clip-path:url(#SVGID_00000042708647182010394140000014232336261234826631_);">
			<path class="st1" d="M12.5,7.2c0,1.2-0.2,2.2-0.7,3c-0.4,0.8-1,1.4-1.8,1.8s-1.6,0.6-2.6,0.6S5.6,12.4,4.8,12
				C4,11.6,3.4,11,3,10.2c-0.5-0.8-0.7-1.8-0.7-3S2.5,5,3,4.2c0.4-0.7,1-1.3,1.8-1.7C5.6,2,6.4,1.8,7.4,1.8S9.2,2,10,2.4
				s1.4,1,1.8,1.8C12.3,5.1,12.5,6.1,12.5,7.2z M9.6,7.2c0-0.6-0.1-1.2-0.2-1.6C9.2,5.2,9,4.8,8.7,4.6C8.3,4.4,7.9,4.3,7.4,4.3
				S6.5,4.4,6.2,4.6c-0.3,0.2-0.6,0.6-0.7,1C5.3,6,5.3,6.6,5.3,7.2s0.1,1.2,0.2,1.6c0.2,0.4,0.4,0.8,0.7,1c0.3,0.2,0.7,0.3,1.2,0.3
				S8.3,10,8.6,9.8s0.6-0.6,0.7-1C9.5,8.4,9.6,7.9,9.6,7.2z"/>
			<path class="st2" d="M13.9,12.5V4.6h2.7v1.5h0.1c0.2-0.5,0.4-0.9,0.8-1.2s0.9-0.4,1.4-0.4c0.6,0,1,0.1,1.4,0.4
				C20.7,5.2,21,5.6,21,6.1h0.1c0.1-0.5,0.4-0.9,0.9-1.2c0.4-0.3,0.9-0.4,1.5-0.4c0.8,0,1.4,0.2,1.8,0.7C25.8,5.7,26,6.3,26,7.1v5.3
				h-2.8V7.9c0-0.3-0.1-0.6-0.3-0.8c-0.2-0.2-0.4-0.3-0.7-0.3c-0.3,0-0.5,0.1-0.7,0.3c-0.2,0.2-0.3,0.5-0.3,0.8v4.6h-2.7V7.9
				c0-0.3-0.1-0.6-0.3-0.8c-0.2-0.2-0.4-0.3-0.7-0.3c-0.2,0-0.4,0-0.5,0.1c0,0.1-0.1,0.2-0.2,0.4c-0.1,0.2-0.1,0.4-0.1,0.6v4.6H13.9
				z"/>
			<path class="st2" d="M29.6,12.6c-0.5,0-0.9-0.1-1.3-0.2c-0.4-0.2-0.7-0.4-0.9-0.8c-0.2-0.3-0.3-0.8-0.3-1.3
				c0-0.4,0.1-0.8,0.2-1.1s0.4-0.6,0.6-0.8c0.3-0.2,0.6-0.3,0.9-0.4c0.4-0.1,0.7-0.2,1.1-0.2s0.8-0.1,1.1-0.1c0.3,0,0.5-0.1,0.6-0.2
				s0.2-0.2,0.2-0.4l0,0c0-0.2-0.1-0.4-0.2-0.5S31.2,6.5,31,6.5c-0.3,0-0.5,0.1-0.7,0.2C30.1,6.8,30,6.9,30,7.2h-2.6
				c0-0.5,0.2-0.9,0.5-1.3s0.7-0.7,1.2-1c0.5-0.2,1.2-0.4,2-0.4c0.6,0,1.1,0.1,1.5,0.2s0.8,0.3,1.1,0.5s0.6,0.5,0.7,0.8
				c0.2,0.3,0.2,0.7,0.2,1v5.4H32v-1.1h-0.1c-0.2,0.3-0.3,0.5-0.6,0.7c-0.2,0.2-0.5,0.3-0.8,0.4C30.3,12.6,30,12.6,29.6,12.6z
				 M30.6,10.8c0.2,0,0.4,0,0.6-0.1s0.3-0.2,0.5-0.4c0.1-0.2,0.2-0.4,0.2-0.6V9c-0.1,0-0.2,0.1-0.2,0.1c-0.1,0-0.2,0.1-0.3,0.1
				c-0.1,0-0.2,0-0.3,0.1c-0.1,0-0.2,0-0.3,0.1c-0.2,0-0.4,0.1-0.5,0.2c-0.1,0.1-0.2,0.2-0.3,0.3c-0.1,0.1-0.1,0.2-0.1,0.4
				s0.1,0.4,0.2,0.5C30.1,10.8,30.3,10.8,30.6,10.8z"/>
			<path class="st2" d="M38.8,8.1v4.4H36V4.6h2.7v1.5h0.1c0.2-0.5,0.5-0.9,0.9-1.2s0.9-0.4,1.5-0.4s1,0.1,1.5,0.4
				c0.4,0.3,0.7,0.6,1,1c0.2,0.4,0.3,1,0.3,1.5v5h-2.8V8.1c0-0.4-0.1-0.7-0.3-0.9c-0.2-0.2-0.5-0.3-0.8-0.3c-0.2,0-0.4,0.1-0.6,0.2
				c-0.2,0.1-0.3,0.2-0.4,0.4S38.8,7.8,38.8,8.1z"/>
			<path class="st1" d="M58.3,7.2c0,1.2-0.2,2.2-0.7,3s-1.1,1.4-1.8,1.8s-1.6,0.6-2.6,0.6s-1.8-0.2-2.6-0.6c-0.8-0.4-1.4-1-1.8-1.8
				c-0.5-0.8-0.7-1.8-0.7-2.9c0-1.2,0.2-2.2,0.7-3s1.1-1.4,1.8-1.8c0.8-0.4,1.6-0.6,2.6-0.6s1.8,0.2,2.6,0.6s1.4,1,1.8,1.8
				C58.1,5.1,58.3,6.1,58.3,7.2z M55.4,7.2c0-0.6-0.1-1.2-0.2-1.6c-0.2-0.4-0.4-0.8-0.7-1s-0.7-0.3-1.2-0.3s-0.9,0.1-1.2,0.3
				c-0.3,0.2-0.6,0.6-0.7,1c-0.2,0.4-0.2,1-0.2,1.6s0.1,1.2,0.2,1.6c0.2,0.4,0.4,0.8,0.7,1s0.7,0.3,1.2,0.3s0.9-0.1,1.2-0.3
				s0.6-0.6,0.7-1C55.3,8.4,55.4,7.9,55.4,7.2z"/>
			<path class="st2" d="M62.5,8.1v4.4h-2.8V4.6h2.7v1.5h0.1c0.2-0.5,0.5-0.9,0.9-1.2s0.9-0.4,1.5-0.4s1,0.1,1.5,0.4
				c0.4,0.3,0.7,0.6,1,1c0.2,0.4,0.3,1,0.3,1.5v5h-2.8V8.1c0-0.4-0.1-0.7-0.3-0.9c-0.2-0.2-0.5-0.3-0.8-0.3c-0.2,0-0.4,0.1-0.6,0.2
				c-0.2,0.1-0.3,0.2-0.4,0.4C62.6,7.6,62.5,7.8,62.5,8.1z"/>
			<path class="st2" d="M71.9,2v10.5H69V2H71.9z"/>
			<path class="st2" d="M73.3,12.5V4.6h2.8v7.9H73.3z M74.7,3.8c-0.4,0-0.7-0.1-1-0.4s-0.4-0.6-0.4-0.9s0.1-0.7,0.4-0.9
				c0.3-0.3,0.6-0.4,1-0.4s0.7,0.1,1,0.4s0.4,0.6,0.4,0.9S76,3.2,75.7,3.4C75.4,3.7,75.1,3.8,74.7,3.8z"/>
			<path class="st2" d="M80.4,8.1v4.4h-2.8V4.6h2.7v1.5h0.1c0.2-0.5,0.5-0.9,0.9-1.2s0.9-0.4,1.5-0.4s1,0.1,1.5,0.4
				c0.4,0.3,0.7,0.6,1,1c0.2,0.4,0.3,1,0.3,1.5v5h-2.8V8.1c0-0.4-0.1-0.7-0.3-0.9C82.3,7,82,6.9,81.7,6.9c-0.2,0-0.4,0.1-0.6,0.2
				s-0.3,0.2-0.4,0.4C80.4,7.6,80.4,7.8,80.4,8.1z"/>
			<path class="st2" d="M90.7,12.6c-0.8,0-1.6-0.2-2.2-0.5s-1.1-0.8-1.4-1.4s-0.5-1.3-0.5-2.2c0-0.8,0.2-1.5,0.5-2.1
				s0.8-1.1,1.4-1.4s1.3-0.5,2.1-0.5c0.6,0,1.1,0.1,1.6,0.3c0.5,0.2,0.9,0.5,1.2,0.8C93.7,6,94,6.4,94.2,6.9
				c0.2,0.5,0.3,1.1,0.3,1.7v0.7h-7V7.6h4.4c0-0.2-0.1-0.4-0.2-0.6s-0.3-0.3-0.4-0.4c-0.2-0.1-0.4-0.1-0.6-0.1s-0.4,0-0.6,0.1
				S89.8,6.8,89.6,7c-0.1,0.2-0.2,0.4-0.2,0.6v1.7c0,0.3,0.1,0.5,0.2,0.7s0.3,0.4,0.5,0.5s0.4,0.2,0.7,0.2c0.2,0,0.4,0,0.5-0.1
				c0.2-0.1,0.3-0.1,0.4-0.2c0.1-0.1,0.2-0.2,0.3-0.4h2.6c-0.1,0.5-0.3,1-0.6,1.4c-0.3,0.4-0.8,0.7-1.3,0.9
				C92,12.5,91.4,12.6,90.7,12.6z"/>
		</g>
	</g>
</g>
</svg>
