<svg version="1.2" xmlns="http://www.w3.org/2000/svg" viewBox="0 0 1099 512" width="1099" height="512">
	<title>logo-text-svg</title>
	<style>
		.s0 { fill: none;stroke: #10182a;stroke-miterlimit:10;stroke-width: 60 } 
		.s1 { fill: #109488;stroke: #109488;stroke-miterlimit:10;stroke-width: 18 } 
		.s2 { fill: #10172a } 
	</style>
	<path id="Layer" class="s0" d="m256 451c-107.8 0-195-87.2-195-195 0-107.8 87.2-195 195-195 107.8 0 195 87.2 195 195 0 107.8-87.2 195-195 195z"/>
	<g id="Layer">
		<path id="Layer" class="s1" d="m385.8 161.4c-28.9 0-52.2-23.3-52.2-52.2 0-28.9 23.3-52.2 52.2-52.2 28.9 0 52.2 23.3 52.2 52.2 0 28.9-23.3 52.2-52.2 52.2z"/>
	</g>
	<g id="Layer">
		<path id="Layer" class="s2" d="m413.3 481.9v-174.6h52.8v32h1.9c3.6-10.6 9.8-19 18.4-25.1 8.6-6.1 18.9-9.2 30.9-9.2 12.1 0 22.5 3.1 31.1 9.3 8.6 6.2 14.1 14.5 16.5 25h1.8c3.3-10.4 9.6-18.7 19.1-24.9 9.5-6.2 20.6-9.4 33.5-9.4q24.7 0 40.2 15.9c10.3 10.6 15.5 25.1 15.5 43.5v117.5h-55.6v-104.8c0-8.7-2.2-15.4-6.7-19.9q-6.7-6.9-17.4-6.9c-7.7 0-13.7 2.5-18 7.4-4.4 5-6.5 11.6-6.5 19.9v104.2h-53.4v-105.3q0-12.2-6.6-19.2c-4.4-4.7-10.2-7-17.4-7-4.8 0-9.1 1.2-12.8 3.5-3.7 2.3-6.6 5.6-8.7 9.8-2.1 4.2-3.1 9.2-3.1 15v103.3z"/>
		<path id="Layer" fill-rule="evenodd" class="s2" d="m758.8 484.8c-11.1 0-21-1.9-29.6-5.6-8.6-3.8-15.4-9.4-20.3-17-5-7.6-7.4-17.2-7.4-28.7 0-9.7 1.7-17.9 5.1-24.5q5.1-10.1 14.1-16.2c6-4.2 12.9-7.3 20.7-9.5 7.8-2.2 16.1-3.6 25-4.4 9.9-0.9 17.9-1.9 24-2.9 6.1-1 10.5-2.5 13.2-4.4 2.8-1.9 4.1-4.7 4.1-8.2v-0.6q0-8.7-6-13.5-6-4.8-16.2-4.8c-7.3 0-13.3 1.6-17.7 4.8-4.5 3.2-7.3 7.6-8.5 13.2l-51.2-1.8c1.5-10.6 5.4-20.1 11.8-28.5q9.4-12.6 26.1-19.8c11.1-4.8 24.5-7.2 40.1-7.2 11.1 0 21.4 1.3 30.8 3.9 9.4 2.6 17.6 6.4 24.5 11.4 7 5 12.4 11 16.2 18.2 3.8 7.2 5.7 15.4 5.7 24.7v118.6h-52.3v-24.3h-1.4c-3.1 5.9-7.1 10.9-11.9 15-4.8 4.1-10.5 7.2-16.9 9.2-6.6 1.9-13.9 2.9-22 2.9zm17.2-36.3q9 0 16.2-3.6c4.8-2.4 8.7-5.8 11.5-10.1 2.9-4.3 4.3-9.3 4.3-14.9v-16.6c-1.6 0.8-3.5 1.6-5.7 2.3-2.2 0.7-4.7 1.3-7.3 1.9-2.7 0.6-5.4 1.1-8.2 1.6q-4.2 0.7-8.1 1.2c-5.2 0.8-9.7 2.1-13.4 3.9-3.7 1.7-6.5 4-8.4 6.8-1.9 2.8-2.9 6-2.9 9.8 0 5.8 2.1 10.2 6.2 13.2 4.2 3 9.4 4.5 15.8 4.5z"/>
		<path id="Layer" class="s2" d="m952.6 382.3v99.5h-55.6v-174.5h52.8v32h1.9q5.8-16.1 19.8-25.2c9.3-6.1 20.4-9.1 33.3-9.1 12.3 0 22.9 2.7 32 8.2 9.1 5.5 16.1 13.1 21.1 23 5 9.8 7.5 21.3 7.4 34.4v111.2h-55.6v-100.3c0.1-9.7-2.4-17.3-7.3-22.7-5-5.5-11.8-8.2-20.6-8.2-5.8 0-11 1.3-15.4 3.8-4.4 2.5-7.8 6.2-10.2 10.9-2.3 4.7-3.5 10.4-3.6 17z"/>
	</g>
</svg>